<svg width="16" height="17" viewBox="0 0 16 17" fill="none" xmlns="http://www.w3.org/2000/svg">
<path d="M13.7078 5.29375C13.6151 5.2004 13.5048 5.12637 13.3833 5.07595C13.2618 5.02553 13.1315 4.99971 13 5H11V4.5C11 3.57174 10.6313 2.6815 9.97487 2.02513C9.3185 1.36875 8.42826 1 7.5 1C6.57174 1 5.6815 1.36875 5.02513 2.02513C4.36875 2.6815 4 3.57174 4 4.5V5H2C1.73478 5 1.48043 5.10536 1.29289 5.29289C1.10536 5.48043 1 5.73478 1 6V12.75C1 13.9688 2.03125 15 3.25 15H11.75C12.3395 15.0002 12.9057 14.7697 13.3275 14.3578C13.5398 14.1553 13.7088 13.9119 13.8244 13.6423C13.9399 13.3727 13.9997 13.0824 14 12.7891V6C14.0004 5.86881 13.9748 5.73884 13.9246 5.61761C13.8745 5.49638 13.8008 5.38631 13.7078 5.29375ZM5 4.5C5 3.83696 5.26339 3.20107 5.73223 2.73223C6.20107 2.26339 6.83696 2 7.5 2C8.16304 2 8.79893 2.26339 9.26777 2.73223C9.73661 3.20107 10 3.83696 10 4.5V5H5V4.5Z" fill="#03DDC6"/>
</svg>
