<svg width="313" height="150" viewBox="0 0 313 150" fill="none" xmlns="http://www.w3.org/2000/svg">
<path d="M75.55 149.1H237.69C257.462 149.1 276.424 141.246 290.405 127.265C304.386 113.284 312.24 94.3219 312.24 74.55C312.24 54.7781 304.386 35.816 290.405 21.8352C276.424 7.85435 257.462 0 237.69 0H75.55C55.7781 0 36.816 7.85435 22.8352 21.8352C8.85435 35.816 1 54.7781 1 74.55C1 94.3219 8.85435 113.284 22.8352 127.265C36.816 141.246 55.7781 149.1 75.55 149.1Z" fill="url(#paint0_linear)"/>
<path d="M151.88 81.77V97.39H142.88V47.24H159.58C175.41 47.24 182.14 52.9 182.14 64.24C182.14 75.92 174.26 81.79 159.58 81.79L151.88 81.77ZM151.88 55.48V73.53H160.26C168.57 73.53 172.87 70.81 172.87 64C172.87 57.84 169.14 55.48 160.4 55.48H151.88Z" fill="white"/>
<path d="M186.91 64.08C189.27 62.28 193.57 60.85 199.74 60.85C210.2 60.85 215.36 64.43 215.36 73.75V97.39H207.47V90.94C205.75 95.1 201.38 97.94 195.65 97.94C188.42 97.94 184.12 93.85 184.12 86.83C184.12 78.66 190.06 76.37 198.88 76.37H207V74.82C207 69.74 204.57 68.16 199.77 68.16C193.17 68.16 189.38 70.74 186.94 74.54L186.91 64.08ZM207 84.78V81.84H199.91C194.96 81.84 192.6 82.78 192.6 86C192.6 88.72 194.6 90.44 198.33 90.44C204 90.44 206.61 87.22 207 84.78Z" fill="white"/>
<path d="M219.51 61.57H228.89L238.71 86.14L246.71 61.57H255.6L241.29 101.19C238.14 109.79 234.91 111.72 230.18 111.72C227.96 111.72 225.53 111.08 224.45 110.15V102.34C225.605 103.46 227.142 104.1 228.75 104.13C231.33 104.13 233.26 102.41 234.63 97.54L219.51 61.57Z" fill="white"/>
<path d="M60.91 64.11V75.11L75.5 84.26L110.41 58.53C109.184 55.8187 107.644 53.2611 105.82 50.91L75.5 73.26L60.91 64.11Z" fill="white"/>
<path d="M105 73.55C105 73.81 105 74.07 105 74.34C105.006 80.9244 102.808 87.3213 98.7563 92.5112C94.7043 97.701 89.0314 101.385 82.6421 102.976C76.2528 104.566 69.5149 103.972 63.5024 101.288C57.49 98.6041 52.5492 93.9844 49.4677 88.1657C46.3862 82.3469 45.3414 75.664 46.4998 69.1824C47.6582 62.7007 50.9532 56.7935 55.8594 52.4023C60.7656 48.0111 67.0007 45.3888 73.5707 44.9534C80.1406 44.518 86.6672 46.2946 92.11 50L99.56 44.51C92.7976 39.0511 84.3805 36.0529 75.6899 36.0076C66.9992 35.9623 58.5513 38.8724 51.7324 44.2605C44.9134 49.6486 40.1286 57.1946 38.1629 65.6601C36.1973 74.1257 37.1677 83.0079 40.9149 90.8494C44.662 98.6908 50.9634 105.026 58.7849 108.814C66.6064 112.603 75.4834 113.62 83.9592 111.699C92.4351 109.779 100.006 105.034 105.43 98.2435C110.854 91.4532 113.809 83.0208 113.81 74.33C113.811 72.0265 113.607 69.7274 113.2 67.46L105 73.55Z" fill="white"/>
<defs>
<linearGradient id="paint0_linear" x1="394" y1="-21" x2="89.0495" y2="319.926" gradientUnits="userSpaceOnUse">
<stop offset="0.0677083" stop-color="#00ADED"/>
<stop offset="0.302083" stop-color="#42E3B4"/>
<stop offset="0.56543" stop-color="#00D900"/>
<stop offset="0.854167" stop-color="#FAED00"/>
</linearGradient>
</defs>
</svg>
